<?xml version="1.0" encoding="UTF-8"?><svg id="a" xmlns="http://www.w3.org/2000/svg" viewBox="0 0 283.46 283.46"><defs><style>.b{fill:#f7c077;}.c{fill:#f9b03d;}.d{fill:#026838;}.e{fill:#8dc044;}.f{fill:#ba1818;}.g{fill:#de2222;}.h{fill:#432518;}.i{fill:#5b2f2f;}</style></defs><path class="c" d="M187.71,132.25c0,28.51,21.95,49.25,48.35,49.25s47.41-20.74,47.41-49.25-21.9-76.23-48.35-76.23-47.41,47.74-47.41,76.25"/><path class="b" d="M235.11,56.02c.64,0,1.27,.05,1.91,.11v125.33c-.33,0-.63,.04-.96,.04-26.44,0-48.35-20.74-48.35-49.25s20.96-76.23,47.4-76.23"/><rect class="h" x="145.99" y="43.73" width="7.72" height="21.4"/><rect class="i" x="146.57" y="45.45" width="3.99" height="21.07"/><rect class="h" x="59.09" y="43.73" width="7.72" height="21.4"/><rect class="i" x="59.68" y="45.45" width="3.99" height="21.07"/><ellipse class="f" cx="63.34" cy="119.57" rx="63.34" ry="63.76"/><path class="g" d="M63.34,183.32C28.36,183.32,0,154.77,0,119.56S28.36,55.79,63.34,55.79"/><path class="d" d="M80.71,169.75c0,40.52,31.13,69.98,68.7,69.98s67.35-29.46,67.35-69.98-31.11-108.34-68.69-108.34-67.36,67.83-67.36,108.34"/><path class="e" d="M148.08,61.41c.88,0,1.8,.07,2.7,.15V239.66c-.47,0-.88,.07-1.36,.07-37.57,0-68.7-29.46-68.7-69.98s29.78-108.34,67.36-108.34"/></svg>