<?xml version="1.0" encoding="UTF-8"?><svg id="a" xmlns="http://www.w3.org/2000/svg" viewBox="0 0 1252.81 498.22"><defs><style>.b{fill:#f7c077;}.c{fill:#f9b03d;}.d{fill:#026838;}.e{fill:#8dc044;}.f{fill:#ba1818;}.g{fill:#de2222;}.h{fill:#432518;}.i{fill:#5b2f2f;}</style></defs><path class="c" d="M318.12,238.29c0,32.48,25,56.1,55.07,56.1s54-23.62,54-56.1-24.95-86.83-55.08-86.83-54,54.38-54,86.86"/><path class="b" d="M372.11,151.46c.73,0,1.45,.06,2.17,.12v142.76c-.38,0-.72,.05-1.09,.05-30.12,0-55.07-23.62-55.07-56.1s23.87-86.83,53.99-86.83"/><rect class="h" x="270.59" y="137.46" width="8.79" height="24.38"/><rect class="i" x="271.25" y="139.42" width="4.54" height="24"/><rect class="h" x="171.61" y="137.46" width="8.79" height="24.38"/><rect class="i" x="172.28" y="139.42" width="4.54" height="24"/><ellipse class="f" cx="176.45" cy="223.85" rx="72.15" ry="72.63"/><path class="g" d="M176.45,296.46c-39.85,0-72.15-32.52-72.15-72.63s32.3-72.63,72.15-72.63"/><path class="d" d="M196.24,281.01c0,46.15,35.46,79.71,78.25,79.71s76.72-33.56,76.72-79.71-35.44-123.41-78.24-123.41-76.73,77.26-76.73,123.41"/><path class="e" d="M272.97,157.6c1,0,2.05,.08,3.07,.17v202.87c-.54,0-1,.08-1.55,.08-42.79,0-78.25-33.56-78.25-79.71s33.92-123.41,76.73-123.41"/><g><path d="M901,175.78v121.61h-28.98v-8.16c-9.66,5.89-19.6,8.64-29.82,8.28-10.22-.36-19.56-3.09-28.04-8.16-8.47-5.08-15.4-12.17-20.79-21.3-5.39-9.12-8.09-19.57-8.09-31.34s2.69-22.22,8.09-31.34c5.39-9.12,12.32-16.26,20.79-21.41,8.46-5.15,17.82-7.91,28.04-8.28,10.22-.36,20.16,2.4,29.82,8.28v-8.16h28.98Zm-28.98,60.91v-1.33c-.14-4.12-.98-7.95-2.52-11.47-1.54-3.53-3.64-6.62-6.3-9.27-2.66-2.65-5.71-4.71-9.14-6.18-3.43-1.47-7.1-2.21-11.02-2.21s-7.84,.78-11.34,2.32c-3.5,1.54-6.55,3.72-9.14,6.51s-4.66,6.03-6.19,9.71c-1.54,3.68-2.31,7.66-2.31,11.92s.77,8.21,2.31,11.81c1.54,3.6,3.6,6.81,6.19,9.6,2.59,2.79,5.64,4.97,9.14,6.51,3.49,1.54,7.28,2.32,11.34,2.32s7.6-.73,11.02-2.21c3.43-1.47,6.47-3.53,9.14-6.18,2.66-2.65,4.76-5.74,6.3-9.27,1.54-3.53,2.38-7.35,2.52-11.47v-1.1h0Z"/><path d="M778.13,234.87c.05,8.15-1.48,16.23-4.51,23.73-5.83,14.62-16.87,26.27-30.76,32.45-7.1,3.18-14.75,4.8-22.47,4.74-7.75,.05-15.44-1.56-22.57-4.74-13.95-6.13-25.04-17.79-30.87-32.45-3.01-7.51-4.53-15.58-4.47-23.73v-91.15h28.95v38.39c6.14-3.71,12.85-6.21,19.84-7.39,6.59-1.1,13.3-.99,19.85,.33,6.39,1.31,12.53,3.74,18.16,7.17,5.63,3.43,10.67,7.85,14.9,13.04,4.32,5.32,7.77,11.37,10.19,17.89,2.56,6.92,3.83,14.3,3.76,21.73h0Zm-28.98,0c.02-4.05-.72-8.06-2.19-11.8-1.4-3.66-3.51-6.96-6.19-9.72-2.68-2.73-5.81-4.94-9.24-6.51-3.51-1.62-7.3-2.45-11.13-2.43-3.9-.03-7.77,.79-11.34,2.43-3.4,1.55-6.5,3.76-9.13,6.51-2.64,2.79-4.74,6.1-6.2,9.72-3.08,7.58-3.08,16.15,0,23.73,2.97,7.22,8.46,12.99,15.33,16.11,3.58,1.64,7.44,2.46,11.34,2.42,3.83,.03,7.62-.8,11.13-2.42,3.43-1.57,6.55-3.78,9.24-6.52,2.67-2.73,4.77-6,6.19-9.62,1.49-3.77,2.25-7.82,2.21-11.9h-.02Z"/><path d="M1148.51,235.77c0,8.39-1.51,16.3-4.51,23.73-3.01,7.43-7.14,13.91-12.39,19.42-5.25,5.52-11.38,9.86-18.37,13.02-7,3.16-14.49,4.74-22.47,4.74-7.56,0-14.81-1.54-21.74-4.64s-13.09-7.32-18.48-12.69c-5.39-5.37-9.66-11.77-12.81-19.2-3.15-7.43-4.72-15.56-4.72-24.39s1.5-16.26,4.51-23.61c3.01-7.35,7.14-13.79,12.39-19.31,5.25-5.52,11.37-9.9,18.37-13.13,7-3.23,14.49-4.85,22.47-4.85,7.56,0,14.81,1.54,21.74,4.64,6.93,3.09,13.09,7.32,18.48,12.69s9.66,11.78,12.81,19.2c3.15,7.43,4.72,15.56,4.72,24.39h0Zm-57.74,30.46c3.92,0,7.63-.81,11.13-2.43,3.49-1.62,6.58-3.78,9.24-6.51,2.66-2.72,4.72-5.92,6.19-9.6,1.47-3.67,2.21-7.65,2.21-11.92s-.74-8.05-2.21-11.81c-1.47-3.75-3.54-6.98-6.19-9.71s-5.74-4.89-9.24-6.51c-3.5-1.62-7.21-2.43-11.13-2.43s-7.84,.81-11.34,2.43c-3.5,1.62-6.55,3.79-9.14,6.51-2.59,2.72-4.66,5.96-6.19,9.71-1.54,3.75-2.31,7.69-2.31,11.81s.77,8.24,2.31,11.92,3.6,6.88,6.19,9.6,5.64,4.9,9.14,6.51c3.49,1.62,7.28,2.43,11.34,2.43Z"/><path d="M1025.19,173.64h-29.5v8.32c-2.04-1.23-4.16-2.34-6.35-3.31-7.14-3.18-14.82-4.79-22.57-4.74-7.72-.06-15.36,1.56-22.47,4.74-13.89,6.18-24.94,17.83-30.77,32.45-3.02,7.51-4.55,15.58-4.51,23.73-.07,7.43,1.21,14.81,3.78,21.74,2.42,6.52,5.86,12.55,10.18,17.87,18.06,22.23,48.62,27.76,72.71,13.17v11.28c.02,4.09-.73,8.15-2.22,11.93-1.44,3.68-3.58,7-6.29,9.78-2.72,2.79-5.89,5.04-9.37,6.65-3.56,1.65-7.42,2.5-11.32,2.49-3.97,.04-7.91-.79-11.54-2.45-7.01-3.16-12.6-9.01-15.63-16.36-1.6-3.82-2.42-7.95-2.4-12.13v-.13l-29.5,.06v.14c-.03,8.29,1.54,16.5,4.64,24.13,5.98,14.92,17.3,26.76,31.54,32.95,7.27,3.22,15.09,4.84,22.98,4.78,7.85,.04,15.64-1.62,22.86-4.88,14.11-6.31,25.3-18.17,31.2-33.04,2.94-7.33,4.46-15.19,4.53-23.13h.02v-126.07Zm-31.74,72.98c-2.92,7.28-8.42,13.1-15.33,16.22-3.58,1.64-7.43,2.47-11.33,2.43-3.84,.02-7.64-.81-11.15-2.43-3.43-1.57-6.55-3.78-9.24-6.51-2.68-2.75-4.79-6.06-6.19-9.71-2.94-7.61-2.94-16.12,0-23.73,1.43-3.6,3.53-6.87,6.19-9.6,2.68-2.74,5.81-4.94,9.24-6.51,3.51-1.62,7.31-2.45,11.15-2.43,3.9-.03,7.77,.79,11.34,2.43,6.87,3.12,12.35,8.88,15.31,16.1,1.3,3.21,2.05,6.61,2.25,10.03v3.68c-.2,3.42-.94,6.81-2.25,10.03Z"/><path d="M651.97,174.08c-7.75-.05-15.42,1.56-22.54,4.76-2.19,.97-4.29,2.1-6.33,3.33v-7.25h-29.07v121.94h29.07v-61.66c-.03-4.1,.72-8.17,2.21-11.96,1.43-3.61,3.54-6.89,6.21-9.63,2.7-2.75,5.85-4.96,9.29-6.54,3.52-1.63,7.33-2.45,11.17-2.43l-.02-30.57Z"/><path d="M546.45,175.71v62.17c.03,3.96-.7,7.89-2.14,11.54-1.38,3.49-3.41,6.66-6,9.29-2.59,2.66-5.63,4.78-8.95,6.3-3.4,1.57-7.07,2.37-10.78,2.35-3.78,.03-7.52-.77-10.98-2.35-6.66-3.02-11.97-8.6-14.83-15.6-1.51-3.64-2.27-7.57-2.24-11.54v-62.17h-28.06v62.17c-.04,7.89,1.44,15.71,4.37,22.98,5.64,14.2,16.38,25.48,29.89,31.42,6.91,3.08,14.35,4.65,21.86,4.6,7.48,.05,14.89-1.51,21.76-4.6,13.45-5.97,24.15-17.25,29.79-31.42,2.93-7.27,4.41-15.09,4.37-22.98v-.13h0v-62.04h-28.07Z"/></g></svg>